<?xml version="1.0" standalone="no"?>
<!DOCTYPE svg PUBLIC "-//W3C//DTD SVG 20010904//EN"
 "http://www.w3.org/TR/2001/REC-SVG-20010904/DTD/svg10.dtd">
<svg version="1.0" xmlns="http://www.w3.org/2000/svg"
 width="500.000000pt" height="500.000000pt" viewBox="0 0 500.000000 500.000000"
 preserveAspectRatio="xMidYMid meet">

<g transform="translate(0.000000,500.000000) scale(0.100000,-0.100000)"
fill="#000000" stroke="none">
<path d="M0 2500 l0 -2500 2500 0 2500 0 0 2500 0 2500 -2500 0 -2500 0 0
-2500z m2034 483 c31 -60 75 -145 99 -190 23 -46 44 -83 47 -83 3 0 18 78 33
173 16 94 31 180 33 190 5 16 21 17 191 15 l186 -3 58 -94 c31 -51 62 -98 67
-103 6 -6 41 28 98 96 l89 106 108 0 c59 0 107 -3 107 -6 0 -5 -80 -100 -298
-356 -11 -13 -62 -250 -62 -290 0 -5 -45 -8 -100 -8 -55 0 -100 3 -100 8 0 4
9 66 21 138 l21 131 -98 156 c-54 86 -100 155 -101 153 -2 -2 -28 -134 -56
-292 l-53 -289 -103 0 -104 0 -96 182 c-53 100 -99 179 -102 175 -3 -4 -19
-87 -35 -184 l-29 -178 -96 0 -96 0 56 330 56 330 101 0 101 0 57 -107z m951
-598 c33 -9 76 -27 96 -40 40 -26 79 -95 79 -138 l0 -27 -95 0 c-87 0 -95 2
-95 19 0 48 -107 83 -187 62 -74 -20 -94 -74 -37 -100 14 -6 78 -22 142 -36
64 -14 142 -38 172 -53 102 -52 127 -147 64 -249 -59 -96 -228 -148 -400 -124
-98 14 -141 30 -189 72 -46 41 -65 78 -65 129 l0 40 93 0 93 0 9 -32 c15 -49
55 -72 133 -76 80 -5 136 14 154 52 9 22 8 29 -7 46 -21 23 -51 34 -172 59
-118 26 -186 55 -223 98 -26 29 -30 42 -30 89 0 65 16 99 66 144 64 56 135 77
264 79 42 1 103 -6 135 -14z m-435 -2 c0 -7 -11 -57 -25 -120 -5 -23 -6 -23
-204 -23 l-199 0 -6 -27 c-3 -16 -8 -45 -12 -65 l-6 -38 182 0 c168 0 181 -1
176 -17 -2 -10 -7 -34 -11 -53 -14 -76 3 -70 -195 -70 -176 0 -178 0 -183 -22
-3 -13 -14 -71 -23 -130 l-18 -108 -103 0 c-102 0 -103 0 -98 23 3 12 14 72
24 132 47 264 92 501 96 513 3 9 74 12 305 12 165 0 300 -3 300 -7z m792 -521
c73 -66 10 -174 -92 -158 -78 12 -106 101 -51 157 41 40 98 41 143 1z"/>
</g>
</svg>
