<?xml version="1.0" encoding="UTF-8"?>
<svg version="1.1" xmlns="http://www.w3.org/2000/svg" width="500" height="500">
<path d="M0 0 C4.48712824 3.59833168 6.10784846 6.91554804 6.78125 12.50390625 C6.88100557 13.87781246 6.97008714 15.25274182 7.03125 16.62890625 C3.68024517 17.6334041 0.58480702 17.79439454 -2.90625 17.81640625 C-3.92589844 17.83058594 -4.94554687 17.84476562 -5.99609375 17.859375 C-9.07500105 17.62066865 -11.224438 17.02556504 -13.96875 15.62890625 C-14.66812532 14.31243506 -15.33604133 12.97868474 -15.96875 11.62890625 C-19.26086134 9.45702724 -22.02313683 9.38754213 -25.90625 9.44140625 C-26.92589844 9.44785156 -27.94554687 9.45429688 -28.99609375 9.4609375 C-31.75249048 9.61668659 -34.28253395 10.01053239 -36.96875 10.62890625 C-36.96875 12.60890625 -36.96875 14.58890625 -36.96875 16.62890625 C-30.02877258 19.12305806 -23.1335177 20.72604269 -15.8984375 22.08984375 C-10.90060602 23.07967401 -6.58061372 24.45279897 -1.96875 26.62890625 C-1.96875 27.28890625 -1.96875 27.94890625 -1.96875 28.62890625 C-1.39125 28.67015625 -0.81375 28.71140625 -0.21875 28.75390625 C2.47000541 29.79953335 3.77608833 31.16998858 5.265625 33.62890625 C7.14111562 38.52814705 6.86502093 43.98937474 5.30078125 48.94140625 C2.08972828 55.86155306 -3.02159868 60.49336925 -9.96875 63.62890625 C-16.5120077 65.66458642 -22.57906812 65.96364463 -29.40625 65.94140625 C-30.39173828 65.95751953 -31.37722656 65.97363281 -32.39257812 65.99023438 C-38.81081517 65.99448768 -44.03349422 65.05625771 -49.96875 62.62890625 C-50.979375 62.23703125 -51.99 61.84515625 -53.03125 61.44140625 C-53.670625 61.17328125 -54.31 60.90515625 -54.96875 60.62890625 C-54.96875 59.96890625 -54.96875 59.30890625 -54.96875 58.62890625 C-55.54625 58.40203125 -56.12375 58.17515625 -56.71875 57.94140625 C-60.07038647 55.98628498 -62.2727614 53.36887775 -63.71875 49.75390625 C-64.0773997 46.7053838 -64.027699 43.69425407 -63.96875 40.62890625 C-59.87871141 39.47908023 -55.93697949 39.51796369 -51.71875 39.56640625 C-50.97367187 39.57091797 -50.22859375 39.57542969 -49.4609375 39.58007812 C-47.6301736 39.59181379 -45.79945127 39.60974775 -43.96875 39.62890625 C-43.51242187 40.74523437 -43.05609375 41.8615625 -42.5859375 43.01171875 C-40.99512779 46.56990666 -40.32791587 47.85052432 -36.96875 49.62890625 C-29.79923184 51.81959235 -22.97693 50.63124339 -15.96875 48.62890625 C-15.55128392 45.75525834 -15.55128392 45.75525834 -15.96875 42.62890625 C-19.2830667 40.18300515 -22.43958113 39.0666049 -26.42578125 38.1640625 C-27.97168945 37.79958008 -27.97168945 37.79958008 -29.54882812 37.42773438 C-31.69178978 36.93957936 -33.83501659 36.45258682 -35.97851562 35.96679688 C-51.97078996 32.19042804 -51.97078996 32.19042804 -57.0703125 25.55078125 C-59.07543008 21.26157322 -58.96875 16.29660535 -58.96875 11.62890625 C-71.83875 11.62890625 -84.70875 11.62890625 -97.96875 11.62890625 C-98.29875 14.59890625 -98.62875 17.56890625 -98.96875 20.62890625 C-99.29875 21.28890625 -99.62875 21.94890625 -99.96875 22.62890625 C-88.08875 22.62890625 -76.20875 22.62890625 -63.96875 22.62890625 C-64.96875 34.62890625 -64.96875 34.62890625 -65.96875 37.62890625 C-68.96657711 39.12781981 -71.71881789 38.75884547 -75.05859375 38.76171875 C-76.10908653 38.76315384 -76.10908653 38.76315384 -77.18080139 38.76461792 C-78.6627715 38.76529871 -80.1447446 38.76345144 -81.62670898 38.75927734 C-83.89378581 38.75393562 -86.16066379 38.75922154 -88.42773438 38.765625 C-89.86718794 38.76496404 -91.30664138 38.76368252 -92.74609375 38.76171875 C-94.05827881 38.76059082 -95.37046387 38.75946289 -96.72241211 38.75830078 C-99.96875 38.62890625 -99.96875 38.62890625 -102.96875 37.62890625 C-103.00613281 38.40492188 -103.04351562 39.1809375 -103.08203125 39.98046875 C-103.60083867 48.50518677 -105.03651422 56.31189135 -106.96875 64.62890625 C-113.89875 64.62890625 -120.82875 64.62890625 -127.96875 64.62890625 C-127.3243805 56.23085979 -126.12790421 48.04426183 -124.65625 39.75390625 C-124.43404785 38.48901367 -124.2118457 37.22412109 -123.98291016 35.92089844 C-123.31793584 32.15572532 -122.64463038 28.39213522 -121.96875 24.62890625 C-121.77845215 23.55930664 -121.5881543 22.48970703 -121.39208984 21.38769531 C-120.88462455 18.54976837 -120.3668499 15.71398818 -119.84375 12.87890625 C-119.69768311 12.06566895 -119.55161621 11.25243164 -119.40112305 10.41455078 C-118.35261012 4.85853719 -116.79188131 0.09830017 -114.96875 -5.37109375 C-95.49875 -5.37109375 -76.02875 -5.37109375 -55.96875 -5.37109375 C-55.23558709 -1.70527921 -54.86494995 0.99590457 -54.96875 4.62890625 C-54.02 3.72140625 -53.07125 2.81390625 -52.09375 1.87890625 C-38.63788115 -9.68985904 -14.3654633 -9.67803128 0 0 Z " fill="#F9FCFB" transform="translate(309.96875,265.37109375)"/>
<path d="M0 0 C1.03253906 0.00676758 1.03253906 0.00676758 2.0859375 0.01367188 C3.76566335 0.02533664 5.44534375 0.04326729 7.125 0.0625 C20.00688169 23.64488484 20.00688169 23.64488484 26.125 35.0625 C28.68807667 27.02755268 29.88892964 18.69488257 31.35742188 10.40625 C31.57076172 9.22289062 31.78410156 8.03953125 32.00390625 6.8203125 C32.29116577 5.19826904 32.29116577 5.19826904 32.58422852 3.54345703 C33.125 1.0625 33.125 1.0625 34.125 0.0625 C39.28625599 -0.35086018 44.44820431 -0.46556153 49.62402344 -0.56225586 C51.36452293 -0.60384273 53.10467098 -0.66514315 54.84375 -0.74682617 C69.26346115 -1.41313333 69.26346115 -1.41313333 73.74536133 2.13964844 C75.55851635 4.70950469 76.87242588 7.18350233 78.125 10.0625 C78.78371094 11.10664063 79.44242187 12.15078125 80.12109375 13.2265625 C80.59675781 14.03867188 81.07242188 14.85078125 81.5625 15.6875 C82.30306641 16.94433594 82.30306641 16.94433594 83.05859375 18.2265625 C83.41050781 18.83242187 83.76242187 19.43828125 84.125 20.0625 C85.2696875 18.8559375 85.2696875 18.8559375 86.4375 17.625 C89.125 15.0625 89.125 15.0625 92.125 14.0625 C93.21986663 12.28115062 93.21986663 12.28115062 94.125 10.0625 C96.09476515 5.59499141 97.97286029 2.73709904 102.125 0.0625 C109.67707762 -1.24834194 117.52350498 -0.54539515 125.125 0.0625 C124.28437208 4.18669462 122.5446489 6.06567653 119.625 9.125 C115.35971224 13.6720946 111.33520153 18.33324175 107.48828125 23.24609375 C105.125 26.0625 105.125 26.0625 102.29296875 28.66015625 C91.9719597 38.42089673 91.20466501 50.98991396 89.52294922 64.58496094 C89.125 67.0625 89.125 67.0625 88.125 68.0625 C86.56327255 68.14935603 84.99770656 68.16952219 83.43359375 68.16015625 C82.48935547 68.15693359 81.54511719 68.15371094 80.57226562 68.15039062 C79.57904297 68.14201172 78.58582031 68.13363281 77.5625 68.125 C76.56541016 68.12048828 75.56832031 68.11597656 74.54101562 68.11132812 C72.06895151 68.09950007 69.59700482 68.08301849 67.125 68.0625 C67.32723111 66.38656345 67.53037407 64.710733 67.73754883 63.03540039 C67.91453803 61.57849114 68.08347264 60.12058373 68.24487305 58.66186523 C68.64382264 55.21194772 69.12778531 52.05280214 70.08984375 48.703125 C71.56944243 43.33020444 71.76478854 39.77259572 69.046875 34.86328125 C66.73071436 31.12681782 64.18550784 27.57264555 61.56835938 24.04248047 C59.55044425 21.27433235 57.74861562 18.40751413 55.9375 15.5 C55.00090601 14.02025949 54.06357405 12.54098539 53.125 11.0625 C50.12675693 25.67772988 47.2959811 40.30565826 44.82543945 55.02050781 C44.63167725 56.14424805 44.43791504 57.26798828 44.23828125 58.42578125 C44.07110596 59.41876221 43.90393066 60.41174316 43.73168945 61.43481445 C43.15729465 63.92262584 42.37517767 65.84852753 41.125 68.0625 C37.89706203 68.29579086 34.67128768 68.43717674 31.4375 68.5625 C30.52548828 68.62953125 29.61347656 68.6965625 28.67382812 68.765625 C22.10944799 68.95658879 22.10944799 68.95658879 19.58227539 66.66137695 C18.21290601 64.52932084 17.17411105 62.36941986 16.125 60.0625 C15.11593319 58.15736303 14.10127675 56.25517961 13.08203125 54.35546875 C12.0305246 52.32203079 10.98239842 50.28684154 9.9375 48.25 C8.88305141 46.20102915 7.827128 44.15281642 6.76953125 42.10546875 C6.30909424 41.20852295 5.84865723 40.31157715 5.37426758 39.38745117 C4.08457187 36.89916238 4.08457187 36.89916238 2.125 34.0625 C0.59611229 37.58081742 -0.30801105 40.84027123 -0.91015625 44.625 C-1.07966797 45.66914063 -1.24917969 46.71328125 -1.42382812 47.7890625 C-1.59333984 48.86929688 -1.76285156 49.94953125 -1.9375 51.0625 C-2.28192498 53.20843408 -2.62695548 55.35427108 -2.97265625 57.5 C-3.12226807 58.44746094 -3.27187988 59.39492187 -3.42602539 60.37109375 C-3.85530453 62.94443426 -4.36335251 65.50426256 -4.875 68.0625 C-11.475 68.0625 -18.075 68.0625 -24.875 68.0625 C-24.26200484 58.03920072 -22.69437099 48.28828316 -20.97363281 38.40917969 C-20.50232952 35.70088634 -20.03960747 32.99123216 -19.578125 30.28125 C-17.8975505 20.48718676 -16.06821939 10.75681323 -13.875 1.0625 C-9.20196408 0.22575441 -4.73853752 -0.05969088 0 0 Z " fill="#FBFCFB" transform="translate(190.875,189.9375)"/>
<path d="M0 0 C3.53288781 3.09127683 4.82867489 4.91494096 5.5625 9.5625 C4.90221791 13.59755725 3.9545023 15.20520053 1 18 C-3.16420421 20.47601332 -6.36865432 20.15783642 -11 19 C-14.72475975 16.89470101 -15.77722097 15.75187922 -17 11.625 C-17 7.40905759 -16.4235361 5.43985769 -14 2 C-9.46374921 -1.27032034 -5.21680949 -1.91747207 0 0 Z " fill="#FBFBFA" transform="translate(333,311)"/>
<path d="M0 0 C3.53288781 3.09127683 4.82867489 4.91494096 5.5625 9.5625 C4.90221791 13.59755725 3.9545023 15.20520053 1 18 C-3.16420421 20.47601332 -6.36865432 20.15783642 -11 19 C-14.72475975 16.89470101 -15.77722097 15.75187922 -17 11.625 C-17 7.40905759 -16.4235361 5.43985769 -14 2 C-9.46374921 -1.27032034 -5.21680949 -1.91747207 0 0 Z M-13.52734375 4.44140625 C-15.3348373 6.08418128 -15.3348373 6.08418128 -15.75 9.5 C-14.81329294 13.8712996 -13.61782112 15.40460659 -10 18 C-5.93396384 18.77860267 -4.3507472 18.20235415 -0.75 16.125 C1.96344026 14.12133595 1.96344026 14.12133595 4 12 C4.38286803 8.26703674 4.14915785 7.22373677 2 4 C1.34 4 0.68 4 0 4 C-0.33 3.34 -0.66 2.68 -1 2 C-6.2724421 0.2425193 -9.22804913 1.21921729 -13.52734375 4.44140625 Z " fill="#E5F9FE" transform="translate(333,311)"/>
<path d="M0 0 C-0.83753827 4.27986062 -3.12379178 6.66981339 -6.0625 9.75 C-6.53494141 10.25660156 -7.00738281 10.76320312 -7.49414062 11.28515625 C-8.65630711 12.52949613 -9.82730161 13.76558064 -11 15 C-11.66 14.67 -12.32 14.34 -13 14 C-11.73046875 12.53515625 -10.4609375 11.0703125 -9.19140625 9.60546875 C-7.79128769 7.89287029 -7.79128769 7.89287029 -7 5 C-6.01 4.67 -5.02 4.34 -4 4 C-3.67 3.01 -3.34 2.02 -3 1 C-14.01640416 0.30301746 -14.01640416 0.30301746 -23.98828125 4.046875 C-26.22048376 6.59135454 -28.12460055 9.18482167 -30 12 C-31.12718201 13.32855222 -32.27089513 14.64342761 -33.4375 15.9375 C-36.0164597 18.90712025 -36.0164597 18.90712025 -38 22 C-38.66 22 -39.32 22 -40 22 C-38.63055898 19.05043472 -37.12169591 16.47531189 -35 14 C-34.34 14 -33.68 14 -33 14 C-32.58814453 13.17242187 -32.58814453 13.17242187 -32.16796875 12.328125 C-31.78253906 11.55984375 -31.39710938 10.7915625 -31 10 C-30.62488281 9.14921875 -30.24976563 8.2984375 -29.86328125 7.421875 C-23.43723867 -3.64969459 -11.19883081 -0.89557579 0 0 Z " fill="#E5F7FE" transform="translate(316,190)"/>
<path d="M0 0 C1.56047445 0.00015913 3.12095416 0.00585397 4.68139648 0.01586914 C5.91115456 0.01799156 5.91115456 0.01799156 7.16575623 0.02015686 C9.79470406 0.0257725 12.42356797 0.0383276 15.05249023 0.05102539 C16.8304838 0.05603838 18.60847869 0.06060163 20.38647461 0.06469727 C24.75434569 0.07574701 29.12215371 0.09302208 33.48999023 0.11352539 C33.98499023 1.10352539 33.98499023 1.10352539 34.48999023 2.11352539 C21.94999023 2.11352539 9.40999023 2.11352539 -3.51000977 2.11352539 C-3.51000977 5.74352539 -3.51000977 9.37352539 -3.51000977 13.11352539 C-3.84000977 14.76352539 -4.17000977 16.41352539 -4.51000977 18.11352539 C-4.71292053 19.54893116 -4.90171213 20.98644536 -5.07250977 22.42602539 C-5.21688477 23.64290039 -5.36125977 24.85977539 -5.51000977 26.11352539 C-6.17000977 26.11352539 -6.83000977 26.11352539 -7.51000977 26.11352539 C-7.44813477 27.53665039 -7.44813477 27.53665039 -7.38500977 28.98852539 C-7.51000977 32.11352539 -7.51000977 32.11352539 -9.51000977 34.11352539 C-8.94222715 26.4727403 -7.91606168 19.01803526 -6.51000977 11.48852539 C-6.33211914 10.49723633 -6.15422852 9.50594727 -5.97094727 8.48461914 C-4.4377432 0.14353138 -4.4377432 0.14353138 0 0 Z " fill="#E1F3FE" transform="translate(228.510009765625,189.886474609375)"/>
<path d="M0 0 C2.44213867 0.85107422 2.44213867 0.85107422 5 2 C5.92578125 4.3828125 5.92578125 4.3828125 6.3125 7.125 C6.45300781 8.03507813 6.59351563 8.94515625 6.73828125 9.8828125 C6.82464844 10.58148438 6.91101563 11.28015625 7 12 C3.125 7.25 3.125 7.25 2 5 C0.47111229 8.51831742 -0.43301105 11.77777123 -1.03515625 15.5625 C-1.20466797 16.60664063 -1.37417969 17.65078125 -1.54882812 18.7265625 C-1.71833984 19.80679688 -1.88785156 20.88703125 -2.0625 22 C-2.40692498 24.14593408 -2.75195548 26.29177108 -3.09765625 28.4375 C-3.24726807 29.38496094 -3.39687988 30.33242187 -3.55102539 31.30859375 C-3.98030453 33.88193426 -4.48835251 36.44176256 -5 39 C-8.96 39 -12.92 39 -17 39 C-17 38.67 -17 38.34 -17 38 C-11.555 37.505 -11.555 37.505 -6 37 C-5.88785156 35.29328125 -5.77570313 33.5865625 -5.66015625 31.828125 C-5.09226674 25.01345087 -3.84616359 18.43424682 -2.4375 11.75 C-2.20353516 10.61175781 -1.96957031 9.47351563 -1.72851562 8.30078125 C-1.15857508 5.53249858 -0.58233635 2.76569661 0 0 Z " fill="#E8FAFE" transform="translate(191,219)"/>
<path d="M0 0 C5.1737433 -0.02501624 10.34745016 -0.04300717 15.52124023 -0.05493164 C17.27547826 -0.05991116 19.02971224 -0.0666972 20.78393555 -0.07543945 C30.91317337 -0.12459647 40.91141446 -0.01746167 51 1 C47.71508627 3.18994248 46.16904361 3.35277339 42.3125 3.625 C40.82169922 3.73714844 40.82169922 3.73714844 39.30078125 3.8515625 C38.16189453 3.92503906 38.16189453 3.92503906 37 4 C37 3.34 37 2.68 37 2 C34.60408962 1.97287649 32.20849043 1.9531018 29.8125 1.9375 C29.13896484 1.92912109 28.46542969 1.92074219 27.77148438 1.91210938 C24.95682185 1.89837931 22.31948368 1.93036894 19.5625 2.53125 C15.73869537 3.23072646 12.04800232 2.84402867 8.1875 2.5625 C7.00510742 2.48418945 7.00510742 2.48418945 5.79882812 2.40429688 C3.86548471 2.27540731 1.93267836 2.13850506 0 2 C-0.33 2.66 -0.66 3.32 -1 4 C-0.67 2.68 -0.34 1.36 0 0 Z " fill="#E8F9FD" transform="translate(195,260)"/>
<path d="M0 0 C0.33 0 0.66 0 1 0 C1.33 2.31 1.66 4.62 2 7 C1.34 7 0.68 7 0 7 C0.020625 8.299375 0.04125 9.59875 0.0625 10.9375 C0.08399454 12.29165633 0.07148199 13.64756083 0 15 C-0.33 15.33 -0.66 15.66 -1 16 C-1.20839015 17.64107242 -1.36751725 19.28856293 -1.5 20.9375 C-1.89022298 25.78044597 -1.89022298 25.78044597 -3 28 C-2.96810205 30.00957058 -2.93365838 32.01971076 -2.83984375 34.02734375 C-3 36 -3 36 -5 39 C-5.44111565 40.88154883 -5.8109267 42.78062638 -6.125 44.6875 C-6.29257813 45.68136719 -6.46015625 46.67523438 -6.6328125 47.69921875 C-6.75398437 48.45847656 -6.87515625 49.21773438 -7 50 C-7.33 50 -7.66 50 -8 50 C-8.22906358 44.16282797 -7.35884962 38.89552204 -6.1875 33.1875 C-5.81852277 31.32847933 -5.45136934 29.46909584 -5.0859375 27.609375 C-4.90256836 26.67673828 -4.71919922 25.74410156 -4.53027344 24.78320312 C-3.57454909 19.76697034 -2.7594992 14.72814295 -1.9519043 9.6862793 C-1.42411539 6.41870661 -0.887026 3.19163562 0 0 Z " fill="#E7F8FE" transform="translate(193,265)"/>
<path d="M0 0 C1.32 0.66 2.64 1.32 4 2 C3.51530309 9.19392249 2.72394946 16.21822733 1.40234375 23.30859375 C0.87679242 26.37062267 0.87679242 26.37062267 1 31 C7.27 31 13.54 31 20 31 C19.67 31.66 19.34 32.32 19 33 C12.07 33 5.14 33 -2 33 C-1.71125 30.628125 -1.4225 28.25625 -1.125 25.8125 C-1.03009277 25.02883057 -0.93518555 24.24516113 -0.83740234 23.43774414 C-0.13972269 17.81227855 0.78162009 12.24380656 1.828125 6.671875 C2.01626273 3.74718842 1.55619603 2.43881468 0 0 Z " fill="#E7FAFE" transform="translate(260,225)"/>
<path d="M0 0 C0.66 0 1.32 0 2 0 C1.67 2.31 1.34 4.62 1 7 C-7.72022809 11.88416621 -15.44411668 11.09074599 -25 10 C-24.67 8.68 -24.34 7.36 -24 6 C-23.01 6.33 -22.02 6.66 -21 7 C-13.92186257 8.99384153 -7.90970087 7.97420025 -1 6 C-0.67 4.02 -0.34 2.04 0 0 Z " fill="#E6F9FD" transform="translate(295,308)"/>
<path d="M0 0 C4.21586495 3.37269196 5.19787743 6.86008298 6 12 C6 12.99 6 13.98 6 15 C2.64899517 16.00449785 -0.44644298 16.16548829 -3.9375 16.1875 C-4.95714844 16.20167969 -5.97679687 16.21585937 -7.02734375 16.23046875 C-10.07159667 15.99444914 -12.24737643 15.28252995 -15 14 C-11.6717269 12.33586345 -8.00266027 13.18132594 -4.375 13.4375 C-3.57320313 13.48970703 -2.77140625 13.54191406 -1.9453125 13.59570312 C0.03679103 13.72548371 2.01844499 13.86209735 4 14 C3.34 10.7 2.68 7.4 2 4 C1.34 4 0.68 4 0 4 C0 2.68 0 1.36 0 0 Z " fill="#E6F9FE" transform="translate(311,267)"/>
<path d="M0 0 C0 1.65 0 3.3 0 5 C-0.9075 4.34 -1.815 3.68 -2.75 3 C-9.12425565 -0.68145785 -17.07618474 0.44023942 -24 2 C-24.33 2.99 -24.66 3.98 -25 5 C-25.33 3.68 -25.66 2.36 -26 1 C-18.27294552 -3.5651363 -8.25609845 -2.37887582 0 0 Z " fill="#E9FBFE" transform="translate(297,274)"/>
<path d="M0 0 C1.98 0 3.96 0 6 0 C5.2575 1.175625 5.2575 1.175625 4.5 2.375 C2.83462035 4.78552327 2.83462035 4.78552327 3 7 C2.34 7 1.68 7 1 7 C0.87625 7.7425 0.7525 8.485 0.625 9.25 C0.0421624 11.81448542 -0.78664449 13.69166512 -2 16 C-1.50130596 10.63108121 -0.97772468 5.30764827 0 0 Z " fill="#DFEFFE" transform="translate(177,191)"/>
<path d="M0 0 C0 4.05959279 -1.51778536 5.00697946 -4.25 7.9375 C-5.03890625 8.79214844 -5.8278125 9.64679688 -6.640625 10.52734375 C-8.73044273 12.71750041 -10.84721565 14.87190354 -13 17 C-11.78155214 10.42038154 -8.10890618 7.04455073 -3 3 C-1.98319689 2.01709032 -0.97261781 1.02665213 0 0 Z " fill="#E9FCFE" transform="translate(297,212)"/>
<path d="M0 0 C6.30267439 0.36776168 11.33251843 1.16625922 17 4 C17 4.66 17 5.32 17 6 C17.66 6.33 18.32 6.66 19 7 C17.68 7 16.36 7 15 7 C15 6.34 15 5.68 15 5 C14.01 5.33 13.02 5.66 12 6 C11.443125 5.566875 10.88625 5.13375 10.3125 4.6875 C7.04912993 2.30612184 3.93652234 1.85291317 0 1 C0 0.67 0 0.34 0 0 Z " fill="#EAF9FE" transform="translate(291,288)"/>
<path d="M0 0 C0.33 0 0.66 0 1 0 C0.51172287 7.47834967 -0.33405548 14.68925318 -2 22 C-2.33 22 -2.66 22 -3 22 C-3.27686916 6.77219626 -3.27686916 6.77219626 0 0 Z " fill="#E5F9FE" transform="translate(242,198)"/>
<path d="M0 0 C1 3 1 3 0.14453125 4.9375 C-4.43973214 12.03571429 -4.43973214 12.03571429 -8 14 C-8.66 14 -9.32 14 -10 14 C-10 13.34 -10 12.68 -10 12 C-8.53492043 10.8345958 -7.06948783 9.66963018 -5.6015625 8.5078125 C-2.98567477 6.04504991 -1.62335857 3.18428027 0 0 Z " fill="#E3F9FE" transform="translate(314,312)"/>
<path d="M0 0 C1.859375 0.25390625 1.859375 0.25390625 4 1 C5.265625 2.77734375 5.265625 2.77734375 6.25 4.9375 C6.58515625 5.64777344 6.9203125 6.35804688 7.265625 7.08984375 C8 9 8 9 8 11 C7.34 11 6.68 11 6 11 C6 10.01 6 9.02 6 8 C5.34 7.67 4.68 7.34 4 7 C0 2.41176471 0 2.41176471 0 0 Z " fill="#EAFBFE" transform="translate(195,190)"/>
<path d="M0 0 C1.875 0.125 1.875 0.125 4 1 C5.1875 3.9375 5.1875 3.9375 6 7 C6.33 7.66 6.66 8.32 7 9 C5.68 8.67 4.36 8.34 3 8 C2.87625 7.195625 2.7525 6.39125 2.625 5.5625 C2.315625 4.2940625 2.315625 4.2940625 2 3 C1.34 2.67 0.68 2.34 0 2 C0 1.34 0 0.68 0 0 Z " fill="#E0FBFE" transform="translate(263,305)"/>
<path d="M0 0 C0.66 0 1.32 0 2 0 C2 1.65 2 3.3 2 5 C1.01 5.495 1.01 5.495 0 6 C-0.66 5.67 -1.32 5.34 -2 5 C-1.125 1.125 -1.125 1.125 0 0 Z " fill="#ECF8FB" transform="translate(218,225)"/>
</svg>
