<svg xmlns="http://www.w3.org/2000/svg" width="500" height="500" viewBox="0 0 500 500">
<g>
<path d="M 0.00 0.00 L 500.00 0.00 L 500.00 500.00 L 0.00 500.00 ZM 265.97 332.72 C265.99,333.64 268.42,333.80 275.75,333.36 C291.40,332.41 304.89,328.22 311.07,322.40 C313.74,319.87 315.00,320.10 315.00,323.10 C315.00,324.06 316.52,326.46 318.37,328.43 C321.36,331.60 322.30,332.00 326.76,332.00 C332.80,332.00 335.53,330.10 337.42,324.58 C339.15,319.52 338.02,315.39 333.88,311.64 C331.15,309.17 330.20,308.87 326.76,309.42 C324.58,309.77 321.49,310.73 319.90,311.55 L 317.00 313.05 L 317.00 308.99 C317.00,303.41 315.03,299.31 309.72,293.83 C305.66,289.65 304.60,289.10 299.35,288.46 C296.13,288.07 292.96,287.32 292.30,286.79 C291.64,286.27 290.06,285.71 288.80,285.56 C274.92,283.94 269.66,280.45 275.22,276.56 C277.71,274.81 287.51,274.40 288.50,276.00 C288.84,276.55 289.96,277.00 290.99,277.00 C292.06,277.00 293.17,277.97 293.58,279.25 C294.85,283.29 297.79,284.45 305.98,284.16 C315.47,283.81 316.86,283.39 317.56,280.63 C318.30,277.65 313.84,268.88 309.87,265.54 C304.60,261.11 300.28,259.87 289.50,259.68 L 279.50 259.50 L 279.71 255.50 C280.29,244.85 280.77,242.09 282.32,240.53 C283.40,239.45 284.00,237.23 284.00,234.27 C284.00,230.24 284.47,229.24 287.91,225.97 C290.07,223.92 292.70,220.55 293.76,218.47 C294.82,216.40 297.41,213.53 299.51,212.10 C301.60,210.67 304.86,207.25 306.74,204.50 C308.63,201.75 311.51,198.02 313.15,196.21 C318.29,190.52 317.11,189.54 304.64,189.22 L 293.81 188.93 L 289.65 193.22 C287.37,195.58 284.83,198.60 284.00,199.94 C280.79,205.12 276.32,209.34 274.69,208.71 C273.80,208.37 271.60,205.31 269.79,201.90 C264.84,192.60 264.23,191.64 262.35,190.27 C259.90,188.48 225.68,188.46 224.24,190.25 C223.68,190.94 222.70,194.88 222.04,199.00 C220.09,211.33 217.94,221.45 217.08,222.31 C216.02,223.38 211.00,217.36 211.00,215.03 C211.00,214.03 210.32,212.95 209.50,212.64 C208.68,212.32 208.00,211.36 208.00,210.51 C208.00,208.21 200.31,192.59 198.26,190.74 C197.05,189.64 194.48,189.13 190.00,189.09 C186.43,189.06 182.07,188.89 180.31,188.71 C177.88,188.47 176.91,188.88 176.19,190.45 C175.20,192.62 172.87,205.24 171.01,218.50 C170.39,222.90 169.61,228.07 169.27,230.00 C168.93,231.93 168.57,234.67 168.45,236.11 C168.34,237.54 167.71,240.35 167.05,242.35 C166.39,244.35 165.77,248.80 165.67,252.24 L 165.50 258.50 L 175.33 258.60 C187.04,258.72 187.98,258.13 188.04,250.68 C188.07,247.83 188.75,243.70 189.56,241.50 C190.37,239.30 191.32,234.69 191.66,231.25 C192.39,224.02 193.49,224.15 197.36,231.90 C198.63,234.43 201.57,240.00 203.91,244.28 C209.74,254.96 210.45,257.69 207.77,259.12 C206.56,259.77 203.48,260.02 200.50,259.71 C197.66,259.42 194.75,259.54 194.04,259.98 C193.32,260.42 192.19,264.09 191.51,268.14 C190.83,272.19 189.54,279.10 188.64,283.50 C185.70,297.92 185.12,301.41 184.44,308.91 C184.07,312.98 183.14,317.81 182.38,319.63 C180.79,323.45 180.55,329.68 181.98,330.17 C182.51,330.35 187.55,330.27 193.17,330.00 L 203.38 329.50 L 205.20 320.50 C206.21,315.55 207.30,310.04 207.64,308.25 L 208.26 305.00 L 223.38 304.89 C231.70,304.83 239.44,304.85 240.59,304.94 C241.73,305.03 243.23,304.43 243.90,303.62 C245.71,301.44 247.16,289.90 245.83,288.30 C242.96,284.84 235.74,290.01 238.12,293.81 C240.19,297.14 237.78,299.02 231.63,298.88 C227.20,298.78 226.91,298.66 229.50,298.00 L 232.50 297.24 L 229.17 297.12 C225.30,296.98 225.23,294.70 229.08,294.15 C230.41,293.96 232.09,293.32 232.81,292.73 C234.89,291.02 231.44,289.62 224.51,289.36 C221.21,289.23 216.99,288.85 215.13,288.50 C211.85,287.88 211.77,287.75 212.29,283.89 C212.59,281.65 212.77,280.16 213.58,279.18 C215.21,277.23 219.33,277.35 231.89,277.73 L 232.28 277.74 C241.75,278.03 249.72,278.46 249.99,278.70 C250.26,278.95 250.52,281.38 250.57,284.11 C250.66,288.32 251.18,289.60 254.09,292.62 C257.66,296.34 263.81,300.00 266.50,300.00 C267.36,300.00 269.07,300.63 270.29,301.39 C271.50,302.16 275.20,303.03 278.50,303.33 C285.11,303.94 290.94,306.01 293.00,308.50 C294.14,309.87 294.01,310.43 292.14,312.30 C290.20,314.24 288.97,314.48 281.59,314.35 C277.00,314.27 272.31,313.70 271.16,313.08 C270.01,312.47 268.60,310.23 268.03,308.10 L 266.98 304.22 L 259.74 303.81 C255.76,303.59 250.93,303.65 249.00,303.96 C245.94,304.45 245.46,304.93 245.19,307.69 C244.75,312.21 246.65,318.43 249.52,321.84 C250.87,323.45 255.12,326.28 258.96,328.13 C262.81,329.98 265.96,332.05 265.97,332.72 ZM 257.50 258.50 L 270.50 259.50 L 263.16 263.29 L 255.82 267.09 L 256.46 264.20 C257.32,260.26 255.23,258.76 249.28,259.03 C246.65,259.16 242.09,259.20 239.14,259.13 L 233.79 259.00 L 234.31 255.25 C234.60,253.19 235.32,247.68 235.91,243.00 C236.50,238.32 237.63,232.25 238.41,229.50 C239.20,226.75 240.14,221.60 240.50,218.05 C240.85,214.50 241.66,210.68 242.29,209.55 C242.92,208.42 243.45,207.09 243.46,206.58 C243.54,204.73 245.59,205.05 247.02,207.14 C247.84,208.33 249.95,211.24 251.72,213.62 C260.37,225.22 262.52,233.44 259.56,243.57 C258.76,246.28 257.98,250.75 257.81,253.50 ZM 275.51 250.96 C275.16,252.06 273.97,252.75 272.42,252.75 C270.13,252.75 269.92,252.41 270.20,249.12 C270.36,247.13 270.77,245.73 271.10,246.00 C271.42,246.27 272.38,245.93 273.23,245.22 C274.54,244.14 274.87,244.34 275.43,246.56 C275.79,247.99 275.83,249.98 275.51,250.96 ZM 270.29 213.25 C270.82,214.69 270.36,215.00 267.64,215.00 C263.86,215.00 263.00,214.41 263.00,211.83 C263.00,210.59 263.73,210.00 265.25,210.02 C268.01,210.03 269.45,210.96 270.29,213.25 ZM 196.88 294.65 C195.27,296.58 194.32,296.32 193.65,293.78 C192.99,291.23 193.83,287.00 195.01,287.00 C196.57,287.00 198.08,293.20 196.88,294.65 ZM 205.61 284.39 C204.78,286.38 203.68,288.00 203.16,288.00 C201.39,288.00 201.00,284.84 202.50,282.70 C203.33,281.52 204.01,280.99 204.02,281.53 C204.02,282.06 204.45,281.84 204.96,281.03 C206.67,278.33 207.14,280.74 205.61,284.39 ZM 198.00 203.50 C198.00,206.38 194.63,207.08 193.61,204.42 C192.55,201.68 192.93,201.00 195.50,201.00 C197.50,201.00 198.00,201.50 198.00,203.50 ZM 177.38 184.80 C178.13,186.02 186.00,186.24 186.00,185.04 C186.00,183.92 185.58,183.82 181.00,183.82 C177.00,183.82 176.80,183.87 177.38,184.80 ZM 239.00 197.00 C239.00,198.10 238.66,198.95 238.25,198.88 C233.94,198.22 232.71,196.71 235.58,195.61 C238.22,194.59 239.00,194.91 239.00,197.00 ZM 258.25 198.01 C257.29,198.02 255.38,198.27 254.00,198.58 L 251.50 199.13 L 254.00 197.60 C256.87,195.84 260.00,195.53 260.00,197.00 C260.00,197.55 259.21,198.01 258.25,198.01 ZM 269.65 273.46 C269.00,275.16 267.42,275.49 266.57,274.11 C265.92,273.06 268.78,270.45 269.65,271.31 C269.98,271.64 269.98,272.61 269.65,273.46 ZM 271.25 293.34 C271.94,293.62 272.03,293.88 271.45,293.92 C270.24,294.01 268.00,291.98 268.00,290.80 C268.00,290.36 268.45,290.00 269.00,290.00 C269.55,290.00 270.00,290.64 270.00,291.42 C270.00,292.20 270.56,293.06 271.25,293.34 ZM 293.00 209.94 C293.00,211.62 291.23,212.03 290.64,210.49 C290.29,209.59 290.64,209.00 291.53,209.00 C292.34,209.00 293.00,209.42 293.00,209.94 ZM 191.00 197.00 C191.00,197.55 190.32,198.00 189.50,198.00 C188.68,198.00 188.00,197.55 188.00,197.00 C188.00,196.45 188.68,196.00 189.50,196.00 C190.32,196.00 191.00,196.45 191.00,197.00 ZM 193.50 323.00 C193.16,323.55 192.46,324.00 191.94,324.00 C191.42,324.00 191.00,323.55 191.00,323.00 C191.00,322.45 191.70,322.00 192.56,322.00 C193.42,322.00 193.84,322.45 193.50,323.00 ZM 188.00 221.00 C188.00,221.55 187.55,222.00 187.00,222.00 C186.45,222.00 186.00,221.55 186.00,221.00 C186.00,220.45 186.45,220.00 187.00,220.00 C187.55,220.00 188.00,220.45 188.00,221.00 Z" fill="rgb(254,254,254)"/>
<path d="M 306.57 325.66 C307.01,325.13 305.52,325.32 302.43,326.45 C289.32,331.23 284.29,332.16 276.80,331.15 C264.89,329.55 262.75,328.97 257.28,325.86 C249.35,321.34 247.36,318.07 246.70,308.50 L 246.50 305.50 L 256.00 305.87 C265.63,306.24 267.43,306.98 266.43,310.19 C265.49,313.21 269.85,314.89 280.30,315.52 C291.60,316.21 293.29,315.86 294.83,312.48 C296.14,309.61 299.00,309.15 299.00,311.81 C299.00,317.01 286.93,321.94 277.70,320.51 C269.63,319.26 266.99,317.95 264.44,313.91 C262.12,310.23 261.68,310.00 257.09,310.00 C250.73,310.00 250.22,311.54 254.55,317.66 C259.33,324.41 266.26,326.62 282.18,326.49 C295.54,326.38 299.54,324.85 307.25,316.87 C311.46,312.51 312.00,311.45 312.00,307.54 C312.00,305.11 311.55,302.84 311.00,302.50 C309.46,301.55 309.82,299.00 311.50,299.00 C312.33,299.00 313.00,299.69 313.00,300.54 C313.00,301.38 313.71,303.16 314.58,304.48 C315.45,305.81 316.08,308.38 315.98,310.20 C315.70,315.18 315.71,315.19 319.96,313.02 C324.40,310.76 331.24,310.35 332.75,312.25 C334.32,314.23 336.38,321.26 336.19,324.00 C335.94,327.75 331.64,331.00 326.95,331.00 C323.81,331.00 322.15,330.24 318.80,327.25 L 315.30 324.13 C315.11,323.71 315.00,323.35 315.00,323.10 C315.00,320.10 313.74,319.87 311.07,322.40 C309.84,323.55 308.33,324.64 306.57,325.66 ZM 214.92 278.24 C217.20,277.26 221.80,277.33 231.67,277.48 L 231.78 277.49 C245.69,277.70 246.57,277.64 237.00,277.12 C230.68,276.78 224.93,276.13 224.23,275.68 C221.67,274.02 224.30,273.00 231.31,272.91 C235.26,272.86 240.75,272.53 243.50,272.16 C247.72,271.60 248.55,271.14 248.83,269.19 C249.39,265.24 247.38,263.95 241.63,264.56 C231.05,265.68 218.36,262.08 226.90,260.37 C230.20,259.71 230.10,258.39 226.65,256.99 L 224.50 256.13 L 226.67 256.06 C227.86,256.03 229.01,255.47 229.23,254.82 C229.86,252.92 232.00,254.91 232.00,257.41 C232.00,259.52 232.56,259.76 238.75,260.35 C242.46,260.70 247.64,260.99 250.25,260.99 C255.29,261.00 255.66,261.45 253.87,265.39 C253.25,266.75 253.03,268.63 253.38,269.55 C253.98,271.11 254.18,271.11 256.26,269.58 C260.55,266.41 271.31,261.85 274.89,261.68 C279.56,261.45 280.10,263.29 275.64,264.21 C267.79,265.84 258.61,271.92 255.85,277.31 C253.42,282.05 254.02,284.10 259.45,289.61 C264.12,294.34 268.92,296.53 276.63,297.44 C288.12,298.78 297.00,303.01 297.00,307.14 C297.00,309.11 296.97,309.11 294.07,307.05 C289.76,303.98 283.41,302.00 277.87,302.00 C274.33,302.00 272.45,301.45 271.00,300.00 C269.90,298.90 268.44,298.00 267.75,297.99 C265.31,297.97 256.46,293.23 254.12,290.67 C252.13,288.52 251.84,287.42 252.36,284.16 C252.79,281.47 252.57,279.89 251.66,279.14 C250.72,278.36 250.44,278.90 250.49,282.08 C250.38,280.26 250.19,278.88 249.99,278.70 C249.72,278.46 241.75,278.03 232.28,277.74 L 231.89 277.73 C221.86,277.43 217.21,277.29 214.92,278.24 ZM 266.02 232.96 C264.53,235.74 264.23,235.57 263.05,231.25 C262.48,229.19 261.12,226.15 260.02,224.50 C258.91,222.85 258.00,220.82 257.99,220.00 C257.98,219.18 256.63,216.98 254.98,215.11 C253.34,213.25 252.00,211.15 252.00,210.44 C252.00,208.70 246.20,203.00 244.42,203.00 C243.64,203.00 243.00,203.68 243.00,204.50 C243.00,206.60 240.26,206.38 239.57,204.23 C239.26,203.25 239.41,201.06 239.90,199.36 C241.20,194.81 240.09,193.84 234.01,194.19 C228.01,194.54 227.76,194.83 225.93,203.25 C225.24,206.41 224.41,209.00 224.09,209.00 C223.05,209.00 224.17,191.53 225.26,190.85 C226.32,190.18 258.47,190.81 260.75,191.54 C261.44,191.76 262.00,192.51 262.00,193.22 C262.00,194.17 260.20,194.41 255.00,194.17 C248.16,193.84 248.00,193.89 248.00,196.26 C248.00,197.60 248.85,199.46 249.89,200.40 C250.92,201.33 252.03,203.38 252.34,204.94 C252.65,206.51 255.18,210.51 257.95,213.84 C263.96,221.07 267.68,229.86 266.02,232.96 ZM 175.56 192.50 C175.72,192.32 175.90,192.06 176.10,191.72 C177.02,190.14 178.15,190.01 186.32,190.60 C196.04,191.29 200.00,193.20 200.00,197.17 C200.00,199.58 198.49,199.49 195.92,196.92 C194.54,195.54 192.02,194.65 188.44,194.28 C183.74,193.80 182.97,193.97 182.47,195.61 C182.16,196.65 181.02,199.16 179.95,201.20 C178.88,203.23 177.99,206.83 177.98,209.20 C177.97,211.56 177.05,215.50 175.94,217.95 C174.52,221.08 173.90,224.64 173.85,229.95 C173.81,234.10 173.40,237.96 172.95,238.53 C172.50,239.09 171.87,241.79 171.55,244.53 C170.52,253.32 169.81,256.00 168.50,256.00 C167.79,256.00 166.95,255.32 166.63,254.49 C165.72,252.11 167.86,242.62 169.60,241.32 C170.63,240.56 170.95,239.42 170.52,238.06 C170.15,236.91 170.33,234.51 170.91,232.73 C171.97,229.46 175.09,203.63 174.90,199.65 C174.80,197.63 174.11,199.69 173.28,203.97 C174.13,199.02 174.95,194.92 175.56,192.50 ZM 186.65 324.62 C186.54,327.42 186.02,328.57 184.75,328.81 C181.99,329.34 181.62,326.43 183.84,321.77 C185.18,318.97 186.07,314.57 186.42,309.00 C187.24,295.97 188.15,290.12 189.57,288.95 C190.39,288.26 190.65,286.63 190.30,284.45 C189.99,282.55 190.34,279.60 191.09,277.79 C191.82,276.01 192.46,273.87 192.49,273.03 C192.69,268.41 194.42,261.77 195.55,261.34 C196.26,261.07 197.79,261.35 198.95,261.97 C200.65,262.88 200.81,263.34 199.77,264.38 C199.07,265.08 197.69,268.32 196.71,271.58 C195.72,274.84 194.03,280.28 192.96,283.69 C191.88,287.09 191.00,292.58 191.00,295.89 C191.00,301.74 190.03,308.18 187.86,316.63 C187.28,318.91 186.74,322.50 186.65,324.62 ZM 281.92 210.62 C280.10,213.27 278.13,215.00 276.95,215.00 C273.92,215.00 274.61,213.31 279.50,208.79 C281.98,206.50 284.00,204.05 284.00,203.35 C284.00,202.64 284.90,201.59 286.00,201.00 C287.10,200.41 288.00,199.47 288.00,198.91 C288.00,198.35 289.24,196.34 290.75,194.45 L 293.50 191.00 L 303.19 191.00 C308.52,191.00 313.09,191.34 313.35,191.76 C314.06,192.90 309.32,198.00 307.55,198.00 C306.70,198.00 306.00,197.37 306.00,196.61 C306.00,194.98 303.87,194.00 300.35,194.00 C297.56,194.00 288.00,201.50 288.00,203.69 C288.00,204.44 287.31,205.33 286.47,205.65 C285.62,205.98 283.57,208.21 281.92,210.62 ZM 306.98 281.52 C305.48,283.33 298.44,283.49 297.31,281.75 C296.86,281.06 296.05,279.64 295.50,278.58 C294.95,277.53 292.92,276.14 291.00,275.49 C286.32,273.93 286.42,271.59 291.18,271.19 C294.18,270.94 295.58,271.51 298.68,274.23 C300.78,276.08 303.78,278.14 305.35,278.82 C307.71,279.84 307.99,280.30 306.98,281.52 ZM 307.00 294.46 C307.00,295.31 306.66,295.95 306.25,295.88 C302.23,295.26 285.28,290.23 282.76,288.91 C281.81,288.41 280.37,288.00 279.57,288.00 C278.77,288.00 277.90,287.64 277.63,287.21 C276.78,285.84 298.20,289.16 302.71,291.09 C305.10,292.12 307.00,293.61 307.00,294.46 ZM 325.25 324.21 C328.31,324.69 331.00,323.99 331.00,322.71 C331.00,322.13 331.74,320.83 332.65,319.83 C334.09,318.24 334.11,318.00 332.78,318.00 C331.93,318.00 330.68,317.33 330.00,316.50 C326.75,312.58 319.52,317.38 321.93,321.86 C322.51,322.96 324.01,324.02 325.25,324.21 ZM 188.85 238.68 C187.59,240.20 186.35,240.37 185.58,239.14 C185.29,238.66 185.33,235.31 185.66,231.69 C186.28,225.08 188.23,222.31 190.22,225.22 C191.33,226.84 190.30,236.93 188.85,238.68 ZM 308.87 268.26 C310.08,269.79 310.00,270.00 308.23,270.00 C307.12,270.00 305.96,269.34 305.65,268.52 C305.34,267.71 303.05,266.54 300.57,265.91 C295.41,264.61 292.82,262.39 295.35,261.42 C298.49,260.21 305.19,263.60 308.87,268.26 ZM 222.94 219.77 C221.78,226.76 221.14,228.55 219.67,228.83 C218.14,229.12 218.00,228.86 218.87,227.23 C219.45,226.17 220.22,222.35 220.58,218.75 C221.28,211.98 222.35,209.01 223.63,210.30 C224.04,210.71 223.73,214.97 222.94,219.77 ZM 216.67 301.48 C216.67,302.67 215.38,303.00 210.76,303.00 C205.68,303.00 204.90,302.76 205.18,301.25 C205.78,298.10 216.67,298.32 216.67,301.48 ZM 216.00 255.65 C216.00,256.39 215.10,257.00 214.00,257.00 C212.20,257.00 211.52,255.95 211.89,253.72 C211.96,253.29 211.12,251.97 210.01,250.78 C208.90,249.59 208.00,247.51 208.00,246.16 C208.00,243.75 208.05,243.74 210.00,245.50 C211.10,246.50 212.00,248.07 212.00,249.00 C212.00,249.93 212.90,251.50 214.00,252.50 C215.10,253.50 216.00,254.92 216.00,255.65 ZM 204.89 235.50 C206.24,240.07 205.84,243.21 204.46,238.86 C204.06,237.61 202.67,235.74 201.37,234.72 C199.79,233.47 199.00,231.82 199.00,229.75 L 199.00 226.65 L 201.27 228.78 C202.52,229.96 204.15,232.98 204.89,235.50 ZM 264.40 255.25 C266.25,256.95 266.19,257.00 262.72,257.00 C258.87,257.00 258.82,256.81 260.53,249.25 C261.31,245.78 263.17,246.59 262.81,250.25 C262.60,252.46 263.11,254.06 264.40,255.25 ZM 270.03 206.57 C271.00,209.13 269.81,209.80 267.21,208.15 C265.71,207.20 264.31,200.00 265.63,200.00 C266.65,200.00 268.68,203.03 270.03,206.57 ZM 316.00 279.62 C316.00,281.48 315.46,282.00 313.56,282.00 C310.24,282.00 309.60,280.55 311.58,277.51 C312.89,275.51 313.55,275.21 314.63,276.10 C315.38,276.73 316.00,278.31 316.00,279.62 ZM 198.00 224.19 C198.00,226.63 197.02,226.40 193.75,223.18 C190.60,220.08 190.42,219.44 192.49,218.64 C194.31,217.95 198.00,221.67 198.00,224.19 ZM 216.00 262.50 C216.00,263.64 214.76,264.00 210.88,264.00 C206.44,264.00 205.92,263.80 207.00,262.50 C207.71,261.64 209.90,261.00 212.12,261.00 C214.90,261.00 216.00,261.42 216.00,262.50 ZM 243.54 301.94 C243.18,302.52 242.01,303.00 240.94,303.00 C238.39,303.00 238.40,299.86 240.95,297.54 C242.84,295.84 242.93,295.86 243.55,298.33 C243.90,299.74 243.89,301.36 243.54,301.94 ZM 205.39 310.42 C204.65,312.35 203.12,312.48 202.43,310.67 C201.76,308.94 203.65,304.00 204.98,304.00 C206.10,304.00 206.35,307.91 205.39,310.42 ZM 185.64 255.50 C185.32,256.33 184.42,257.00 183.64,257.00 C181.33,257.00 180.98,254.33 183.05,252.46 C184.80,250.87 185.01,250.86 185.59,252.36 C185.93,253.26 185.95,254.68 185.64,255.50 ZM 215.04 275.00 C214.51,275.00 213.22,275.92 212.17,277.05 C210.67,278.66 210.14,278.80 209.72,277.71 C208.94,275.69 210.14,274.25 213.26,273.47 C215.01,273.03 216.00,273.18 216.00,273.89 C216.00,274.50 215.57,275.00 215.04,275.00 ZM 290.90 221.20 C289.81,223.23 288.44,223.52 287.46,221.94 C287.10,221.35 287.60,219.99 288.58,218.91 C290.70,216.57 292.45,218.30 290.90,221.20 ZM 238.00 223.29 C238.00,224.65 237.29,226.34 236.42,227.06 C235.03,228.22 234.88,227.98 235.17,225.01 C235.56,221.06 238.00,219.57 238.00,223.29 ZM 304.65 203.46 C304.33,204.31 303.16,205.00 302.06,205.00 C299.75,205.00 300.22,202.51 302.72,201.55 C304.71,200.79 305.41,201.48 304.65,203.46 ZM 232.94 245.75 C233.00,249.04 232.58,249.75 231.56,248.09 C231.25,247.59 231.42,246.13 231.93,244.84 C232.81,242.65 232.88,242.71 232.94,245.75 ZM 203.00 320.44 C203.00,321.30 202.55,322.00 202.00,322.00 C201.45,322.00 201.00,321.58 201.00,321.06 C201.00,320.54 201.45,319.84 202.00,319.50 C202.55,319.16 203.00,319.58 203.00,320.44 ZM 204.00 206.06 C204.00,206.58 203.55,207.00 203.00,207.00 C202.45,207.00 202.00,206.30 202.00,205.44 C202.00,204.58 202.45,204.16 203.00,204.50 C203.55,204.84 204.00,205.54 204.00,206.06 ZM 300.00 209.00 C300.00,209.55 299.55,210.00 299.00,210.00 C298.45,210.00 298.00,209.55 298.00,209.00 C298.00,208.45 298.45,208.00 299.00,208.00 C299.55,208.00 300.00,208.45 300.00,209.00 ZM 279.43 333.07 C285.59,332.28 292.71,330.91 298.12,329.34 C292.73,331.12 286.34,332.42 279.43,333.07 ZM 180.76 188.75 C180.66,188.74 180.58,188.74 180.50,188.73 C178.98,188.61 177.54,189.06 176.52,189.84 C177.22,188.78 178.23,188.50 180.31,188.71 C180.45,188.72 180.59,188.74 180.76,188.75 ZM 169.50 228.60 C169.08,231.48 168.69,234.37 168.54,235.73 C168.49,236.14 168.42,236.63 168.32,237.15 C168.39,236.76 168.43,236.40 168.45,236.11 C168.57,234.67 168.93,231.93 169.27,230.00 C169.33,229.64 169.41,229.16 169.50,228.60 ZM 321.19 330.97 C322.69,331.71 324.48,331.98 327.01,332.00 C326.93,332.00 326.84,332.00 326.76,332.00 C323.99,332.00 322.58,331.85 321.19,330.97 ZM 250.60 284.99 C250.83,288.65 251.48,289.91 254.09,292.62 C251.40,289.82 250.75,288.52 250.60,284.99 ZM 333.06 330.72 C335.03,329.58 336.38,327.60 337.42,324.58 C336.37,327.65 335.06,329.60 333.06,330.72 Z" fill="rgb(248,250,251)"/>
<path d="M 265.97 332.72 C265.96,332.05 262.81,329.98 258.96,328.13 C255.12,326.28 250.87,323.45 249.52,321.84 C246.65,318.43 244.75,312.21 245.19,307.69 C245.46,304.93 245.94,304.45 249.00,303.96 C250.93,303.65 255.76,303.59 259.74,303.81 L 266.98 304.22 L 268.03 308.10 C268.60,310.23 270.01,312.47 271.16,313.08 C272.31,313.70 277.00,314.27 281.59,314.35 C288.97,314.48 290.20,314.24 292.14,312.30 C294.01,310.43 294.14,309.87 293.00,308.50 C290.94,306.01 285.11,303.94 278.50,303.33 C275.20,303.03 271.50,302.16 270.29,301.39 C269.07,300.63 267.36,300.00 266.50,300.00 C263.82,300.00 257.67,296.35 254.11,292.65 C251.18,289.59 250.70,288.39 250.54,283.58 C250.38,279.08 250.59,278.25 251.66,279.14 C252.57,279.89 252.79,281.47 252.36,284.16 C251.84,287.42 252.13,288.52 254.12,290.67 C256.46,293.23 265.31,297.97 267.75,297.99 C268.44,298.00 269.90,298.90 271.00,300.00 C272.45,301.45 274.33,302.00 277.87,302.00 C283.41,302.00 289.76,303.98 294.07,307.05 C296.97,309.11 297.00,309.11 297.00,307.14 C297.00,303.01 288.12,298.78 276.63,297.44 C268.92,296.53 264.12,294.34 259.45,289.61 C254.02,284.10 253.42,282.05 255.85,277.31 C258.61,271.92 267.79,265.84 275.64,264.21 C280.10,263.29 279.56,261.45 274.89,261.68 C271.31,261.85 260.55,266.41 256.26,269.58 C254.18,271.11 253.98,271.11 253.38,269.55 C253.03,268.63 253.25,266.75 253.87,265.39 C255.66,261.45 255.29,261.00 250.25,260.99 C247.64,260.99 242.46,260.70 238.75,260.35 C232.56,259.76 232.00,259.52 232.00,257.41 C232.00,254.91 229.86,252.92 229.23,254.82 C229.01,255.47 227.86,256.03 226.67,256.06 L 224.50 256.13 L 226.65 256.99 C230.10,258.39 230.20,259.71 226.90,260.37 C218.36,262.08 231.05,265.68 241.63,264.56 C247.38,263.95 249.39,265.24 248.83,269.19 C248.55,271.14 247.72,271.60 243.50,272.16 C240.75,272.53 235.26,272.86 231.31,272.91 C224.30,273.00 221.67,274.02 224.23,275.68 C224.93,276.13 230.68,276.78 237.00,277.12 C246.57,277.64 245.69,277.70 231.78,277.49 C213.15,277.19 213.19,277.18 212.29,283.89 C211.77,287.75 211.85,287.88 215.13,288.50 C216.99,288.85 221.21,289.23 224.51,289.36 C231.44,289.62 234.89,291.02 232.81,292.73 C232.09,293.32 230.41,293.96 229.08,294.15 C225.23,294.70 225.30,296.98 229.17,297.12 L 232.50 297.24 L 229.50 298.00 C226.91,298.66 227.20,298.78 231.63,298.88 C237.78,299.02 240.19,297.14 238.12,293.81 C235.74,290.01 242.96,284.84 245.83,288.30 C247.16,289.90 245.71,301.44 243.90,303.62 C243.23,304.43 241.73,305.03 240.59,304.94 C239.44,304.85 231.70,304.83 223.38,304.89 L 208.26 305.00 L 207.64 308.25 C207.30,310.04 206.21,315.55 205.20,320.50 L 203.38 329.50 L 193.17 330.00 C187.55,330.27 182.51,330.35 181.98,330.17 C180.55,329.68 180.79,323.45 182.38,319.63 C183.14,317.81 184.07,312.98 184.44,308.91 C185.12,301.41 185.70,297.92 188.64,283.50 C189.54,279.10 190.83,272.19 191.51,268.14 C192.19,264.09 193.32,260.42 194.04,259.98 C194.75,259.54 197.66,259.42 200.50,259.71 C203.48,260.02 206.56,259.77 207.77,259.12 C210.45,257.69 209.74,254.96 203.91,244.28 C201.57,240.00 198.63,234.43 197.36,231.90 C193.49,224.15 192.39,224.02 191.66,231.25 C191.32,234.69 190.37,239.30 189.56,241.50 C188.75,243.70 188.07,247.83 188.04,250.68 C187.98,258.13 187.04,258.72 175.33,258.60 L 165.50 258.50 L 165.67 252.24 C165.77,248.80 166.37,244.41 167.01,242.47 C167.65,240.54 168.34,237.50 168.54,235.73 C168.74,233.95 169.35,229.57 169.89,226.00 C170.42,222.43 171.35,216.12 171.94,212.00 C173.25,202.86 174.75,196.60 174.90,199.65 C175.09,203.63 171.97,229.46 170.91,232.73 C170.33,234.51 170.15,236.91 170.52,238.06 C170.95,239.42 170.63,240.56 169.60,241.32 C167.86,242.62 165.72,252.11 166.63,254.49 C166.95,255.32 167.79,256.00 168.50,256.00 C169.81,256.00 170.52,253.32 171.55,244.53 C171.87,241.79 172.50,239.09 172.95,238.53 C173.40,237.96 173.81,234.10 173.85,229.95 C173.90,224.64 174.52,221.08 175.94,217.95 C177.05,215.50 177.97,211.56 177.98,209.20 C177.99,206.83 178.88,203.23 179.95,201.20 C181.02,199.16 182.16,196.65 182.47,195.61 C182.97,193.97 183.74,193.80 188.44,194.28 C192.02,194.65 194.54,195.54 195.92,196.92 C198.49,199.49 200.00,199.58 200.00,197.17 C200.00,193.20 196.04,191.29 186.32,190.60 C178.15,190.01 177.02,190.14 176.10,191.72 C175.53,192.70 175.06,193.05 175.06,192.50 C175.07,190.29 177.64,188.51 180.50,188.73 C182.15,188.86 186.43,189.01 190.00,189.06 C194.44,189.12 197.06,189.65 198.26,190.74 C200.31,192.59 208.00,208.21 208.00,210.51 C208.00,211.36 208.68,212.32 209.50,212.64 C210.32,212.95 211.00,214.03 211.00,215.03 C211.00,217.36 216.02,223.38 217.08,222.31 C217.94,221.45 220.09,211.33 222.04,199.00 C222.70,194.88 223.68,190.94 224.24,190.25 C225.68,188.46 259.90,188.48 262.35,190.27 C264.23,191.64 264.84,192.60 269.79,201.90 C271.60,205.31 273.80,208.37 274.69,208.71 C276.32,209.34 280.79,205.12 284.00,199.94 C284.83,198.60 287.37,195.58 289.65,193.22 L 293.81 188.93 L 304.64 189.22 C317.11,189.54 318.29,190.52 313.15,196.21 C311.51,198.02 308.63,201.75 306.74,204.50 C304.86,207.25 301.60,210.67 299.51,212.10 C297.41,213.53 294.82,216.40 293.76,218.47 C292.70,220.55 290.07,223.92 287.91,225.97 C284.47,229.24 284.00,230.24 284.00,234.27 C284.00,237.23 283.40,239.45 282.32,240.53 C280.77,242.09 280.29,244.85 279.71,255.50 L 279.50 259.50 L 289.50 259.68 C300.28,259.87 304.60,261.11 309.87,265.54 C313.84,268.88 318.30,277.65 317.56,280.63 C316.86,283.39 315.47,283.81 305.98,284.16 C297.79,284.45 294.85,283.29 293.58,279.25 C293.17,277.97 292.06,277.00 290.99,277.00 C289.96,277.00 288.84,276.55 288.50,276.00 C287.51,274.40 277.71,274.81 275.22,276.56 C269.66,280.45 274.92,283.94 288.80,285.56 C290.06,285.71 291.64,286.27 292.30,286.79 C292.96,287.32 296.13,288.07 299.35,288.46 C304.60,289.10 305.66,289.65 309.72,293.83 C315.03,299.31 317.00,303.41 317.00,308.99 L 317.00 313.05 L 319.90 311.55 C321.49,310.73 324.58,309.77 326.76,309.42 C330.20,308.87 331.15,309.17 333.88,311.64 C338.02,315.39 339.15,319.52 337.42,324.58 C335.59,329.92 332.76,332.00 327.32,332.00 C321.88,332.00 319.81,330.96 316.86,326.75 L 314.59 323.50 L 318.80 327.25 C322.15,330.24 323.81,331.00 326.95,331.00 C331.64,331.00 335.94,327.75 336.19,324.00 C336.38,321.26 334.32,314.23 332.75,312.25 C331.24,310.35 324.40,310.76 319.96,313.02 C315.71,315.19 315.70,315.18 315.98,310.20 C316.08,308.38 315.45,305.81 314.58,304.48 C313.71,303.16 313.00,301.38 313.00,300.54 C313.00,299.69 312.33,299.00 311.50,299.00 C309.82,299.00 309.46,301.55 311.00,302.50 C311.55,302.84 312.00,305.11 312.00,307.54 C312.00,311.45 311.46,312.51 307.25,316.87 C299.54,324.85 295.54,326.38 282.18,326.49 C266.26,326.62 259.33,324.41 254.55,317.66 C250.22,311.54 250.73,310.00 257.09,310.00 C261.68,310.00 262.12,310.23 264.44,313.91 C266.99,317.95 269.63,319.26 277.70,320.51 C286.93,321.94 299.00,317.01 299.00,311.81 C299.00,309.15 296.14,309.61 294.83,312.48 C293.29,315.86 291.60,316.21 280.30,315.52 C269.85,314.89 265.49,313.21 266.43,310.19 C267.43,306.98 265.63,306.24 256.00,305.87 L 246.50 305.50 L 246.70 308.50 C247.36,318.07 249.35,321.34 257.28,325.86 C262.75,328.97 264.89,329.55 276.80,331.15 C284.29,332.16 289.32,331.23 302.43,326.45 C307.32,324.67 308.19,325.21 303.79,327.30 C294.54,331.68 266.04,335.77 265.97,332.72 ZM 186.65 324.62 C186.74,322.50 187.28,318.91 187.86,316.63 C190.03,308.18 191.00,301.74 191.00,295.89 C191.00,292.58 191.88,287.09 192.96,283.69 C194.03,280.28 195.72,274.84 196.71,271.58 C197.69,268.32 199.07,265.08 199.77,264.38 C200.81,263.34 200.65,262.88 198.95,261.97 C197.79,261.35 196.26,261.07 195.55,261.34 C194.42,261.77 192.69,268.41 192.49,273.03 C192.46,273.87 191.82,276.01 191.09,277.79 C190.34,279.60 189.99,282.55 190.30,284.45 C190.65,286.63 190.39,288.26 189.57,288.95 C188.15,290.12 187.24,295.97 186.42,309.00 C186.07,314.57 185.18,318.97 183.84,321.77 C181.62,326.43 181.99,329.34 184.75,328.81 C186.02,328.57 186.54,327.42 186.65,324.62 ZM 193.50 323.00 C193.84,322.45 193.42,322.00 192.56,322.00 C191.70,322.00 191.00,322.45 191.00,323.00 C191.00,323.55 191.42,324.00 191.94,324.00 C192.46,324.00 193.16,323.55 193.50,323.00 ZM 203.00 320.44 C203.00,319.58 202.55,319.16 202.00,319.50 C201.45,319.84 201.00,320.54 201.00,321.06 C201.00,321.58 201.45,322.00 202.00,322.00 C202.55,322.00 203.00,321.30 203.00,320.44 ZM 205.39 310.42 C206.35,307.91 206.10,304.00 204.98,304.00 C203.65,304.00 201.76,308.94 202.43,310.67 C203.12,312.48 204.65,312.35 205.39,310.42 ZM 216.67 301.48 C216.67,298.32 205.78,298.10 205.18,301.25 C204.90,302.76 205.68,303.00 210.76,303.00 C215.38,303.00 216.67,302.67 216.67,301.48 ZM 243.54 301.94 C243.89,301.36 243.90,299.74 243.55,298.33 C242.93,295.86 242.84,295.84 240.95,297.54 C238.40,299.86 238.39,303.00 240.94,303.00 C242.01,303.00 243.18,302.52 243.54,301.94 ZM 196.88 294.65 C198.08,293.20 196.57,287.00 195.01,287.00 C193.83,287.00 192.99,291.23 193.65,293.78 C194.32,296.32 195.27,296.58 196.88,294.65 ZM 307.00 294.46 C307.00,293.61 305.10,292.12 302.71,291.09 C298.20,289.16 276.78,285.84 277.63,287.21 C277.90,287.64 278.77,288.00 279.57,288.00 C280.37,288.00 281.81,288.41 282.76,288.91 C285.28,290.23 302.23,295.26 306.25,295.88 C306.66,295.95 307.00,295.31 307.00,294.46 ZM 271.25 293.34 C270.56,293.06 270.00,292.20 270.00,291.42 C270.00,290.64 269.55,290.00 269.00,290.00 C268.45,290.00 268.00,290.36 268.00,290.80 C268.00,291.98 270.24,294.01 271.45,293.92 C272.03,293.88 271.94,293.62 271.25,293.34 ZM 205.61 284.39 C207.14,280.74 206.67,278.33 204.96,281.03 C204.45,281.84 204.02,282.06 204.02,281.53 C204.01,280.99 203.33,281.52 202.50,282.70 C201.00,284.84 201.39,288.00 203.16,288.00 C203.68,288.00 204.78,286.38 205.61,284.39 ZM 306.98 281.52 C307.99,280.30 307.71,279.84 305.35,278.82 C303.78,278.14 300.78,276.08 298.68,274.23 C295.58,271.51 294.18,270.94 291.18,271.19 C286.42,271.59 286.32,273.93 291.00,275.49 C292.92,276.14 294.95,277.53 295.50,278.58 C296.05,279.64 296.86,281.06 297.31,281.75 C298.44,283.49 305.48,283.33 306.98,281.52 ZM 316.00 279.62 C316.00,278.31 315.38,276.73 314.63,276.10 C313.55,275.21 312.89,275.51 311.58,277.51 C309.60,280.55 310.24,282.00 313.56,282.00 C315.46,282.00 316.00,281.48 316.00,279.62 ZM 215.04 275.00 C215.57,275.00 216.00,274.50 216.00,273.89 C216.00,273.18 215.01,273.03 213.26,273.47 C210.14,274.25 208.94,275.69 209.72,277.71 C210.14,278.80 210.67,278.66 212.17,277.05 C213.22,275.92 214.51,275.00 215.04,275.00 ZM 269.65 273.46 C269.98,272.61 269.98,271.64 269.65,271.31 C268.78,270.45 265.92,273.06 266.57,274.11 C267.42,275.49 269.00,275.16 269.65,273.46 ZM 308.87 268.26 C305.19,263.60 298.49,260.21 295.35,261.42 C292.82,262.39 295.41,264.61 300.57,265.91 C303.05,266.54 305.34,267.71 305.65,268.52 C305.96,269.34 307.12,270.00 308.23,270.00 C310.00,270.00 310.08,269.79 308.87,268.26 ZM 264.00 259.00 L 257.50 258.50 L 257.81 253.50 C257.98,250.75 258.76,246.28 259.56,243.57 C262.52,233.44 260.37,225.22 251.72,213.62 C249.95,211.24 247.84,208.33 247.02,207.14 C245.59,205.05 243.54,204.73 243.46,206.58 C243.45,207.09 242.92,208.42 242.29,209.55 C241.66,210.68 240.85,214.50 240.50,218.05 C240.14,221.60 239.20,226.75 238.41,229.50 C237.63,232.25 236.50,238.32 235.91,243.00 C235.32,247.68 234.60,253.19 234.31,255.25 L 233.79 259.00 L 239.14 259.13 C242.09,259.20 246.65,259.16 249.28,259.03 C255.23,258.76 257.32,260.26 256.46,264.20 L 255.82 267.09 L 263.16 263.29 L 270.50 259.50 L 264.00 259.00 ZM 216.00 262.50 C216.00,261.42 214.90,261.00 212.12,261.00 C209.90,261.00 207.71,261.64 207.00,262.50 C205.92,263.80 206.44,264.00 210.88,264.00 C214.76,264.00 216.00,263.64 216.00,262.50 ZM 185.64 255.50 C185.95,254.68 185.93,253.26 185.59,252.36 C185.01,250.86 184.80,250.87 183.05,252.46 C180.98,254.33 181.33,257.00 183.64,257.00 C184.42,257.00 185.32,256.33 185.64,255.50 ZM 216.00 255.65 C216.00,254.92 215.10,253.50 214.00,252.50 C212.90,251.50 212.00,249.93 212.00,249.00 C212.00,248.07 211.10,246.50 210.00,245.50 C208.05,243.74 208.00,243.75 208.00,246.16 C208.00,247.51 208.90,249.59 210.01,250.78 C211.12,251.97 211.96,253.29 211.89,253.72 C211.52,255.95 212.20,257.00 214.00,257.00 C215.10,257.00 216.00,256.39 216.00,255.65 ZM 264.40 255.25 C263.11,254.06 262.60,252.46 262.81,250.25 C263.17,246.59 261.31,245.78 260.53,249.25 C258.82,256.81 258.87,257.00 262.72,257.00 C266.19,257.00 266.25,256.95 264.40,255.25 ZM 275.51 250.96 C275.83,249.98 275.79,247.99 275.43,246.56 C274.87,244.34 274.54,244.14 273.23,245.22 C272.38,245.93 271.42,246.27 271.10,246.00 C270.77,245.73 270.36,247.13 270.20,249.12 C269.92,252.41 270.13,252.75 272.42,252.75 C273.97,252.75 275.16,252.06 275.51,250.96 ZM 232.94 245.75 C232.88,242.71 232.81,242.65 231.93,244.84 C231.42,246.13 231.25,247.59 231.56,248.09 C232.58,249.75 233.00,249.04 232.94,245.75 ZM 204.89 235.50 C204.15,232.98 202.52,229.96 201.27,228.78 L 199.00 226.65 L 199.00 229.75 C199.00,231.82 199.79,233.47 201.37,234.72 C202.67,235.74 204.06,237.61 204.46,238.86 C205.84,243.21 206.24,240.07 204.89,235.50 ZM 188.85 238.68 C190.30,236.93 191.33,226.84 190.22,225.22 C188.23,222.31 186.28,225.08 185.66,231.69 C185.33,235.31 185.29,238.66 185.58,239.14 C186.35,240.37 187.59,240.20 188.85,238.68 ZM 266.02 232.96 C267.68,229.86 263.96,221.07 257.95,213.84 C255.18,210.51 252.65,206.51 252.34,204.94 C252.03,203.38 250.92,201.33 249.89,200.40 C248.85,199.46 248.00,197.60 248.00,196.26 C248.00,193.89 248.16,193.84 255.00,194.17 C260.20,194.41 262.00,194.17 262.00,193.22 C262.00,192.51 261.44,191.76 260.75,191.54 C258.47,190.81 226.32,190.18 225.26,190.85 C224.17,191.53 223.05,209.00 224.09,209.00 C224.41,209.00 225.24,206.41 225.93,203.25 C227.76,194.83 228.01,194.54 234.01,194.19 C240.09,193.84 241.20,194.81 239.90,199.36 C239.41,201.06 239.26,203.25 239.57,204.23 C240.26,206.38 243.00,206.60 243.00,204.50 C243.00,203.68 243.64,203.00 244.42,203.00 C246.20,203.00 252.00,208.70 252.00,210.44 C252.00,211.15 253.34,213.25 254.98,215.11 C256.63,216.98 257.98,219.18 257.99,220.00 C258.00,220.82 258.91,222.85 260.02,224.50 C261.12,226.15 262.48,229.19 263.05,231.25 C264.23,235.57 264.53,235.74 266.02,232.96 ZM 222.94 219.77 C223.73,214.97 224.04,210.71 223.63,210.30 C222.35,209.01 221.28,211.98 220.58,218.75 C220.22,222.35 219.45,226.17 218.87,227.23 C218.00,228.86 218.14,229.12 219.67,228.83 C221.14,228.55 221.78,226.76 222.94,219.77 ZM 238.00 223.29 C238.00,219.57 235.56,221.06 235.17,225.01 C234.88,227.98 235.03,228.22 236.42,227.06 C237.29,226.34 238.00,224.65 238.00,223.29 ZM 198.00 224.19 C198.00,221.67 194.31,217.95 192.49,218.64 C190.42,219.44 190.60,220.08 193.75,223.18 C197.02,226.40 198.00,226.63 198.00,224.19 ZM 290.90 221.20 C292.45,218.30 290.70,216.57 288.58,218.91 C287.60,219.99 287.10,221.35 287.46,221.94 C288.44,223.52 289.81,223.23 290.90,221.20 ZM 188.00 221.00 C188.00,220.45 187.55,220.00 187.00,220.00 C186.45,220.00 186.00,220.45 186.00,221.00 C186.00,221.55 186.45,222.00 187.00,222.00 C187.55,222.00 188.00,221.55 188.00,221.00 ZM 270.29 213.25 C269.45,210.96 268.01,210.03 265.25,210.02 C263.73,210.00 263.00,210.59 263.00,211.83 C263.00,214.41 263.86,215.00 267.64,215.00 C270.36,215.00 270.82,214.69 270.29,213.25 ZM 281.92 210.62 C283.57,208.21 285.62,205.98 286.47,205.65 C287.31,205.33 288.00,204.44 288.00,203.69 C288.00,201.50 297.56,194.00 300.35,194.00 C303.87,194.00 306.00,194.98 306.00,196.61 C306.00,197.37 306.70,198.00 307.55,198.00 C309.32,198.00 314.06,192.90 313.35,191.76 C313.09,191.34 308.52,191.00 303.19,191.00 L 293.50 191.00 L 290.75 194.45 C289.24,196.34 288.00,198.35 288.00,198.91 C288.00,199.47 287.10,200.41 286.00,201.00 C284.90,201.59 284.00,202.64 284.00,203.35 C284.00,204.05 281.98,206.50 279.50,208.79 C274.61,213.31 273.92,215.00 276.95,215.00 C278.13,215.00 280.10,213.27 281.92,210.62 ZM 293.00 209.94 C293.00,209.42 292.34,209.00 291.53,209.00 C290.64,209.00 290.29,209.59 290.64,210.49 C291.23,212.03 293.00,211.62 293.00,209.94 ZM 300.00 209.00 C300.00,208.45 299.55,208.00 299.00,208.00 C298.45,208.00 298.00,208.45 298.00,209.00 C298.00,209.55 298.45,210.00 299.00,210.00 C299.55,210.00 300.00,209.55 300.00,209.00 ZM 270.03 206.57 C268.68,203.03 266.65,200.00 265.63,200.00 C264.31,200.00 265.71,207.20 267.21,208.15 C269.81,209.80 271.00,209.13 270.03,206.57 ZM 204.00 206.06 C204.00,205.54 203.55,204.84 203.00,204.50 C202.45,204.16 202.00,204.58 202.00,205.44 C202.00,206.30 202.45,207.00 203.00,207.00 C203.55,207.00 204.00,206.58 204.00,206.06 ZM 198.00 203.50 C198.00,201.50 197.50,201.00 195.50,201.00 C192.93,201.00 192.55,201.68 193.61,204.42 C194.63,207.08 198.00,206.38 198.00,203.50 ZM 304.65 203.46 C305.41,201.48 304.71,200.79 302.72,201.55 C300.22,202.51 299.75,205.00 302.06,205.00 C303.16,205.00 304.33,204.31 304.65,203.46 ZM 239.00 197.00 C239.00,194.91 238.22,194.59 235.58,195.61 C232.71,196.71 233.94,198.22 238.25,198.88 C238.66,198.95 239.00,198.10 239.00,197.00 ZM 258.25 198.01 C259.21,198.01 260.00,197.55 260.00,197.00 C260.00,195.53 256.87,195.84 254.00,197.60 L 251.50 199.13 L 254.00 198.58 C255.38,198.27 257.29,198.02 258.25,198.01 ZM 191.00 197.00 C191.00,196.45 190.32,196.00 189.50,196.00 C188.68,196.00 188.00,196.45 188.00,197.00 C188.00,197.55 188.68,198.00 189.50,198.00 C190.32,198.00 191.00,197.55 191.00,197.00 ZM 325.25 324.21 C324.01,324.02 322.51,322.96 321.93,321.86 C319.52,317.38 326.75,312.58 330.00,316.50 C330.68,317.33 331.93,318.00 332.78,318.00 C334.11,318.00 334.09,318.24 332.65,319.83 C331.74,320.83 331.00,322.13 331.00,322.71 C331.00,323.99 328.31,324.69 325.25,324.21 ZM 177.38 184.80 C176.80,183.87 177.00,183.82 181.00,183.82 C185.58,183.82 186.00,183.92 186.00,185.04 C186.00,186.24 178.13,186.02 177.38,184.80 Z" fill="rgb(252,252,251)"/>
</g>
</svg>